<?xml version="1.0" standalone="no"?>
<!DOCTYPE svg PUBLIC "-//W3C//DTD SVG 20010904//EN"
 "http://www.w3.org/TR/2001/REC-SVG-20010904/DTD/svg10.dtd">
<svg version="1.0" xmlns="http://www.w3.org/2000/svg"
 width="250.000000pt" height="250.000000pt" viewBox="0 0 250.000000 250.000000"
 preserveAspectRatio="xMidYMid meet">

<g transform="translate(0.000000,250.000000) scale(0.100000,-0.100000)"
fill="#000000" stroke="none">
<path d="M985 1640 c-60 -3 -102 -7 -93 -8 9 -1 24 -12 32 -24 23 -33 23 -443
0 -476 -8 -12 -23 -23 -32 -24 -9 -1 48 -5 127 -8 l143 -5 30 -80 c29 -78 29
-80 12 -117 -21 -47 -93 -115 -131 -124 -49 -10 -49 -14 0 -10 57 4 107 36
143 89 21 31 127 336 150 429 3 16 9 26 13 23 4 -2 41 -97 81 -209 65 -184 90
-233 90 -177 0 24 166 503 191 553 29 58 92 115 138 128 51 14 53 23 4 14 -59
-10 -107 -39 -151 -90 -48 -53 -61 -86 -133 -327 -29 -98 -56 -172 -60 -165
-4 7 -35 92 -69 188 -34 96 -67 186 -73 200 -9 22 -19 -2 -82 -195 -76 -232
-74 -229 -99 -147 -6 18 -3 22 13 22 15 0 25 14 40 55 27 71 26 76 -1 35 -13
-18 -33 -39 -45 -47 -21 -14 -22 -13 -56 94 -19 59 -32 110 -30 113 3 3 13 -6
24 -19 l19 -23 0 58 c0 56 -1 57 -16 36 -15 -22 -44 -30 -44 -13 0 6 10 17 22
25 21 15 17 16 -65 16 l-87 0 0 90 0 90 55 0 c41 0 56 -4 64 -17 8 -15 10 -11
11 20 0 24 -4 36 -12 35 -7 -1 -62 -5 -123 -8z m56 -240 l24 -19 -37 -1 c-31
0 -38 3 -38 20 0 25 21 26 51 0z m71 -155 c20 -55 37 -106 37 -112 1 -10 -21
-13 -79 -13 l-80 0 0 116 0 115 42 -3 43 -3 37 -100z"/>
</g>
</svg>
