<?xml version="1.0" standalone="no"?>
<!DOCTYPE svg PUBLIC "-//W3C//DTD SVG 20010904//EN"
 "http://www.w3.org/TR/2001/REC-SVG-20010904/DTD/svg10.dtd">
<svg version="1.0" xmlns="http://www.w3.org/2000/svg"
 width="168.000000pt" height="132.000000pt" viewBox="0 0 168.000000 132.000000"
 preserveAspectRatio="xMidYMid meet">

<g transform="translate(0.000000,132.000000) scale(0.100000,-0.100000)"
fill="#000000" stroke="none">
<path d="M343 1203 l-53 -4 23 -30 c22 -30 22 -36 22 -323 0 -263 -2 -295 -18
-319 -13 -21 -15 -28 -5 -31 7 -3 83 -7 168 -10 85 -3 156 -5 156 -6 1 0 19
-47 39 -104 34 -97 36 -107 24 -143 -16 -49 -133 -168 -180 -182 -34 -11 -34
-11 9 -6 84 10 149 59 191 144 25 49 133 354 168 473 15 54 31 98 34 98 9 0
38 -70 114 -280 77 -211 107 -276 113 -245 11 60 211 640 252 731 34 75 121
165 182 188 l43 16 -40 -6 c-54 -8 -102 -34 -163 -89 -68 -62 -105 -140 -177
-375 -66 -219 -95 -300 -105 -300 -5 0 -12 12 -18 28 -62 178 -175 488 -178
491 -7 8 -52 -106 -94 -239 -54 -172 -99 -290 -111 -290 -9 0 -18 18 -33 67
-6 19 -2 25 19 33 24 9 48 51 70 120 6 20 -2 15 -35 -23 -23 -26 -48 -47 -56
-47 -7 0 -20 13 -29 29 -20 39 -76 243 -69 250 3 3 17 -7 30 -24 l24 -30 0 68
0 68 -26 -20 c-15 -12 -33 -21 -40 -21 -22 0 -16 28 9 42 21 12 21 12 -13 20
-19 4 -69 7 -110 6 l-75 -1 -3 121 -3 122 63 0 c36 0 75 -6 91 -15 l28 -14 -3
32 -3 32 -90 1 c-49 0 -114 -1 -142 -3z m137 -318 l34 -25 -51 0 c-42 0 -52 3
-56 19 -10 39 24 42 73 6z m68 -142 c49 -129 74 -214 67 -221 -4 -4 -52 -7
-108 -7 l-102 0 -3 153 -3 152 60 0 59 0 30 -77z"/>
</g>
</svg>
